<svg version="1.1" id="Layer_1" xmlns="http://www.w3.org/2000/svg" xmlns:xlink="http://www.w3.org/1999/xlink" x="0px" y="0px"
	 width="100%" viewBox="0 0 544 534" enable-background="new 0 0 544 534" xml:space="preserve">
<path fill="#F7F7F7" opacity="1.000000" stroke="none" 
	d="
M1.000000,185.000000 
	C1.000000,123.347519 1.000000,62.195030 1.000000,1.021273 
	C182.277100,1.021273 363.554199,1.021273 544.915649,1.021273 
	C544.915649,178.902466 544.915649,356.804993 544.915649,534.853760 
	C363.666748,534.853760 182.333389,534.853760 1.000000,534.853760 
	C1.000000,418.445831 1.000000,301.972931 1.000000,185.000000 
M386.303436,34.963203 
	C383.213440,33.634724 380.123444,32.306244 376.579926,30.431515 
	C365.382660,26.655708 354.185394,22.879902 342.281219,18.793058 
	C337.668793,17.745897 333.056366,16.698736 327.792389,15.204164 
	C312.018738,11.982877 296.148590,9.677182 279.058441,10.025416 
	C270.046387,10.415363 261.034302,10.805310 251.175003,11.046243 
	C245.761383,11.816627 240.347763,12.587010 234.076920,13.472283 
	C223.692017,15.920640 213.307129,18.368998 202.141113,20.825975 
	C191.060410,25.102947 179.979706,29.379919 168.199722,33.861954 
	C164.392059,35.827724 160.584412,37.793495 156.091034,39.760643 
	C155.209320,39.346874 154.273468,39.019581 153.453964,38.506470 
	C139.361832,29.683065 124.201241,26.515783 107.656639,28.927982 
	C76.013199,33.541588 51.539379,63.973557 53.585396,96.001312 
	C54.270428,106.724594 57.702026,116.415756 61.562366,126.449440 
	C59.666466,129.550568 57.770565,132.651703 55.293747,136.141037 
	C49.560726,148.102676 43.827702,160.064316 37.710625,172.637085 
	C35.129158,180.175079 32.248138,187.625626 30.017187,195.265961 
	C19.400797,231.624008 17.509481,268.557983 23.054892,306.767700 
	C23.369394,308.554108 23.667328,310.343658 24.000969,312.126465 
	C27.225716,329.358246 31.714859,346.217743 38.920185,363.023468 
	C44.272297,373.688812 49.624409,384.354156 55.124683,395.698944 
	C61.411366,404.794830 67.698044,413.890717 74.166534,423.644287 
	C78.534805,428.860474 82.681053,434.283447 87.311646,439.255310 
	C103.215263,456.330688 120.757767,471.461945 141.339935,483.900909 
	C175.900085,505.179779 213.289642,517.759094 253.830322,521.089233 
	C281.185608,523.336243 308.152649,521.650269 334.894104,515.370789 
	C375.058838,505.939117 410.639404,487.513672 442.078033,461.018738 
	C455.457306,449.743286 467.763306,437.343048 478.623047,422.739807 
	C480.276306,420.479828 482.091309,418.319427 483.554962,415.942657 
	C490.092102,405.327484 496.528961,394.650543 503.527863,383.559326 
	C505.144745,380.301575 506.836151,377.078430 508.366455,373.780518 
	C518.407593,352.141205 525.577637,329.631165 528.974915,305.103394 
	C529.646057,299.489807 530.480652,293.890228 530.962036,288.260406 
	C534.243103,249.888580 529.323853,212.569229 515.779358,176.524338 
	C512.380554,167.479340 507.591034,158.956924 503.813141,149.535858 
	C499.227051,141.662323 494.640961,133.788803 490.108215,125.204224 
	C490.734955,123.851410 491.346344,122.491249 491.990692,121.146866 
	C508.928864,85.805832 491.605316,44.131645 454.546265,31.560263 
	C433.699585,24.488516 414.204346,28.138250 395.489258,39.542397 
	C392.647797,38.116524 389.806305,36.690655 386.303436,34.963203 
z"/>
<path fill="#655C5B" opacity="1.000000" stroke="none" 
	d="
M478.023743,423.060883 
	C467.763306,437.343048 455.457306,449.743286 442.078033,461.018738 
	C410.639404,487.513672 375.058838,505.939117 334.894104,515.370789 
	C308.152649,521.650269 281.185608,523.336243 253.830322,521.089233 
	C213.289642,517.759094 175.900085,505.179779 141.144623,483.158630 
	C141.294785,468.871033 141.376617,455.312500 142.058228,441.784149 
	C142.772095,427.615082 148.937439,415.628448 158.308334,405.218353 
	C169.346588,392.955902 183.440063,386.516174 199.527023,384.136200 
	C208.345993,382.831451 215.923950,384.149750 220.394974,393.417175 
	C222.602264,397.992432 226.123505,401.936951 229.075958,406.148804 
	C233.454208,412.394592 239.423462,412.084167 243.247711,405.483643 
	C244.908981,402.616364 246.450211,399.613953 248.530731,397.069214 
	C252.451279,392.273865 256.567200,392.691833 259.506317,398.033905 
	C264.312225,406.768982 268.953247,415.594604 273.719604,424.351715 
	C275.638367,427.876953 278.086365,430.656891 282.714783,430.000671 
	C287.078094,429.381989 288.011963,425.949554 288.911438,422.542694 
	C290.984131,414.692078 292.887360,406.795929 295.028076,398.964355 
	C296.751221,392.660278 301.441132,391.363251 306.230133,395.749481 
	C307.947693,397.322510 309.463867,399.119965 311.216888,400.648834 
	C315.602325,404.473663 320.267151,403.903778 323.488434,399.130463 
	C325.250671,396.519226 326.995880,393.862946 328.404236,391.054260 
	C330.546143,386.782623 333.981171,384.681549 338.562622,384.081177 
	C348.887085,382.728210 359.275818,381.725342 369.512329,379.880524 
	C379.740845,378.037170 390.053864,376.069672 399.901978,372.848511 
	C414.445862,368.091492 426.839142,359.369904 438.330627,349.139648 
	C443.731812,355.861847 448.835571,362.430359 454.077789,369.318970 
	C459.142365,378.769592 464.068481,387.900055 469.033752,397.401001 
	C472.056549,406.201263 475.040161,414.631073 478.023743,423.060883 
z"/>
<path fill="#4D4646" opacity="1.000000" stroke="none" 
	d="
M438.033203,348.985962 
	C426.839142,359.369904 414.445862,368.091492 399.901978,372.848511 
	C390.053864,376.069672 379.740845,378.037170 369.512329,379.880524 
	C359.275818,381.725342 348.887085,382.728210 338.562622,384.081177 
	C333.981171,384.681549 330.546143,386.782623 328.404236,391.054260 
	C326.995880,393.862946 325.250671,396.519226 323.488434,399.130463 
	C320.267151,403.903778 315.602325,404.473663 311.216888,400.648834 
	C309.463867,399.119965 307.947693,397.322510 306.230133,395.749481 
	C301.441132,391.363251 296.751221,392.660278 295.028076,398.964355 
	C292.887360,406.795929 290.984131,414.692078 288.911438,422.542694 
	C288.011963,425.949554 287.078094,429.381989 282.714783,430.000671 
	C278.086365,430.656891 275.638367,427.876953 273.719604,424.351715 
	C268.953247,415.594604 264.312225,406.768982 259.506317,398.033905 
	C256.567200,392.691833 252.451279,392.273865 248.530731,397.069214 
	C246.450211,399.613953 244.908981,402.616364 243.247711,405.483643 
	C239.423462,412.084167 233.454208,412.394592 229.075958,406.148804 
	C226.123505,401.936951 222.602264,397.992432 220.394974,393.417175 
	C215.923950,384.149750 208.345993,382.831451 199.527023,384.136200 
	C183.440063,386.516174 169.346588,392.955902 158.308334,405.218353 
	C148.937439,415.628448 142.772095,427.615082 142.058228,441.784149 
	C141.376617,455.312500 141.294785,468.871033 140.926666,482.912842 
	C120.757767,471.461945 103.215263,456.330688 87.311646,439.255310 
	C82.681053,434.283447 78.534805,428.860474 74.257324,423.003174 
	C74.641273,420.952911 74.934418,419.543762 75.466393,417.868835 
	C81.435249,404.375641 87.165283,391.148193 93.063591,377.620758 
	C99.382759,368.509735 105.264244,359.492279 111.794151,350.971741 
	C115.243584,346.470734 119.822601,342.835449 124.199921,338.978180 
	C132.518585,343.773193 140.265823,348.955139 148.598694,352.900085 
	C162.388016,359.428314 177.606689,360.628571 192.448013,362.880676 
	C204.188370,364.662262 216.067459,365.529694 228.236832,366.969208 
	C238.757614,368.671600 248.926483,370.207855 259.521057,371.814240 
	C282.261993,374.061310 304.247772,372.152405 326.401703,366.570862 
	C339.373749,365.043549 351.882355,363.520020 364.388123,361.973572 
	C387.377350,359.130737 409.350281,353.497101 428.321747,338.839966 
	C431.118896,341.286926 433.583069,343.634277 436.165710,346.259460 
	C436.867157,347.353546 437.450165,348.169769 438.033203,348.985962 
M124.536362,407.968384 
	C126.347916,403.569824 128.675217,399.288361 129.713791,394.714294 
	C130.121582,392.918335 128.160416,389.637817 126.356384,388.517212 
	C123.901367,386.992249 120.856506,387.711426 119.120064,390.754791 
	C115.335670,397.387573 111.318291,403.898895 107.827278,410.681763 
	C106.503464,413.253906 106.365974,416.436615 105.627007,419.601166 
	C112.551643,419.515228 119.618660,414.966614 124.536362,407.968384 
M121.493996,427.084595 
	C120.554359,429.913666 119.464752,432.703278 118.708069,435.580444 
	C117.367523,440.677582 115.961723,445.783844 115.106796,450.972565 
	C114.594368,454.082550 116.123383,455.803223 119.597862,454.193604 
	C128.077759,450.265137 136.317749,433.660461 133.641571,424.951385 
	C133.042694,423.002472 130.519516,420.401733 128.824646,420.358429 
	C126.861053,420.308350 124.772026,422.670380 122.871689,424.156921 
	C122.296272,424.606995 122.166679,425.627075 121.493996,427.084595 
z"/>
<path fill="#5C8C43" opacity="1.000000" stroke="none" 
	d="
M478.323395,422.900330 
	C475.040161,414.631073 472.056549,406.201263 469.037903,396.929016 
	C469.001221,366.061371 468.999512,336.036194 469.000671,305.541168 
	C469.004364,295.303864 469.062042,285.535858 468.967804,275.769287 
	C468.942993,273.193176 468.449188,270.621613 468.152008,267.644592 
	C469.091553,260.837616 470.240692,254.455627 470.970978,248.026077 
	C472.883270,231.190247 471.319794,214.523895 468.385590,197.653839 
	C468.758698,180.867325 468.861328,164.391891 469.128693,147.625580 
	C474.295227,142.627350 479.393585,138.016815 484.254913,133.168594 
	C486.433075,130.996307 488.136230,128.347733 490.054901,125.915268 
	C494.640961,133.788803 499.227051,141.662323 503.474945,150.385803 
	C503.090363,153.064697 503.003662,154.893631 503.003448,156.722580 
	C502.997284,206.483765 503.000000,256.244965 502.995483,306.474182 
	C502.993866,332.626801 502.997955,358.311371 503.002045,383.995941 
	C496.528961,394.650543 490.092102,405.327484 483.554962,415.942657 
	C482.091309,418.319427 480.276306,420.479828 478.323395,422.900330 
z"/>
<path fill="#665D5C" opacity="1.000000" stroke="none" 
	d="
M490.081543,125.559746 
	C488.136230,128.347733 486.433075,130.996307 484.254913,133.168594 
	C479.393585,138.016815 474.295227,142.627350 468.772766,147.686295 
	C463.160339,150.044647 458.068542,152.051407 452.694824,153.862747 
	C448.267609,146.782227 444.122375,139.897141 440.301880,132.861542 
	C447.625977,130.427582 453.019989,125.890732 457.933441,120.592339 
	C468.698517,108.983879 468.338257,85.953293 457.808044,74.138710 
	C448.628357,63.839367 437.583130,59.851261 424.056915,60.930210 
	C410.565674,62.006378 396.142883,74.696190 393.651184,87.940773 
	C386.185211,83.814667 379.054779,79.780724 371.940521,75.362686 
	C373.319916,70.675407 374.683136,66.372231 376.336914,61.894829 
	C380.409912,56.813087 384.192413,51.905575 388.273407,46.849083 
	C391.043579,44.465187 393.515228,42.230267 395.986908,39.995346 
	C414.204346,28.138250 433.699585,24.488516 454.546265,31.560263 
	C491.605316,44.131645 508.928864,85.805832 491.990692,121.146866 
	C491.346344,122.491249 490.734955,123.851410 490.081543,125.559746 
z"/>
<path fill="#655D5C" opacity="1.000000" stroke="none" 
	d="
M62.057281,125.970535 
	C57.702026,116.415756 54.270428,106.724594 53.585396,96.001312 
	C51.539379,63.973557 76.013199,33.541588 107.656639,28.927982 
	C124.201241,26.515783 139.361832,29.683065 153.453964,38.506470 
	C154.273468,39.019581 155.209320,39.346874 156.600769,40.073395 
	C161.072235,44.265121 165.033951,48.144104 169.133545,52.336464 
	C173.134369,60.104057 176.997345,67.558273 180.640137,75.265762 
	C172.937302,79.642288 165.454636,83.765533 157.967529,87.512741 
	C152.299042,67.204491 133.938034,57.599564 114.626686,61.493645 
	C93.251877,65.803818 80.888535,88.643616 87.975212,109.191147 
	C92.054031,121.017517 99.863426,129.260788 112.313194,132.579285 
	C107.551514,140.350113 102.919304,147.796432 98.048325,154.940552 
	C95.891861,154.056625 93.974167,153.474899 91.878349,152.603149 
	C86.458023,148.878281 81.215828,145.443451 75.782730,141.738037 
	C71.080315,136.301819 66.568794,131.136185 62.057281,125.970535 
z"/>
<path fill="#5C8C43" opacity="1.000000" stroke="none" 
	d="
M54.976521,395.019501 
	C49.624409,384.354156 44.272297,373.688812 38.919868,362.178772 
	C38.943535,342.906036 38.967514,324.477966 38.994431,305.578125 
	C38.998447,262.657745 39.011295,220.209167 38.962193,177.760666 
	C38.959980,175.848755 38.396652,173.937515 38.094677,172.025955 
	C43.827702,160.064316 49.560726,148.102676 55.621025,136.431152 
	C55.965343,193.145584 55.982380,249.569870 55.988113,306.463287 
	C55.974129,334.397003 55.991055,361.861664 55.926117,389.326111 
	C55.921631,391.224640 55.307266,393.121735 54.976521,395.019501 
z"/>
<path fill="#507939" opacity="1.000000" stroke="none" 
	d="
M503.001221,306.006134 
	C503.000000,256.244965 502.997284,206.483765 503.003448,156.722580 
	C503.003662,154.893631 503.090363,153.064697 503.288696,150.715042 
	C507.591034,158.956924 512.380554,167.479340 515.779358,176.524338 
	C529.323853,212.569229 534.243103,249.888580 530.962036,288.260406 
	C530.480652,293.890228 529.646057,299.489807 528.442017,305.539764 
	C519.606506,305.986145 511.303864,305.996124 503.001221,306.006134 
z"/>
<path fill="#4F7838" opacity="1.000000" stroke="none" 
	d="
M55.999420,305.994171 
	C55.982380,249.569870 55.965343,193.145584 55.911484,136.237061 
	C57.770565,132.651703 59.666466,129.550568 61.809822,126.209991 
	C66.568794,131.136185 71.080315,136.301819 75.498573,142.040131 
	C75.272247,144.591232 75.023811,146.569595 75.022942,148.548065 
	C74.999763,201.031158 75.002121,253.514252 74.531845,305.998474 
	C68.042183,305.997803 62.020802,305.996002 55.999420,305.994171 
z"/>
<path fill="#5D8C44" opacity="1.000000" stroke="none" 
	d="
M279.984009,10.164524 
	C296.148590,9.677182 312.018738,11.982877 327.769043,15.724205 
	C327.497101,18.020670 327.042023,19.796043 327.032990,21.573679 
	C326.966217,34.734669 326.988129,47.896111 326.548340,61.082077 
	C310.740326,60.050926 295.366180,58.995110 279.995483,57.474457 
	C279.993958,41.394585 279.988983,25.779554 279.984009,10.164524 
z"/>
<path fill="#79AD5F" opacity="1.000000" stroke="none" 
	d="
M55.988113,306.463287 
	C62.020802,305.996002 68.042183,305.997803 74.540619,306.467346 
	C75.019753,320.067627 75.000366,333.200195 75.028580,346.332672 
	C75.080009,370.266693 75.159676,394.200653 75.227554,418.134644 
	C74.934418,419.543762 74.641273,420.952911 74.166428,422.674316 
	C67.698044,413.890717 61.411366,404.794830 55.050598,395.359222 
	C55.307266,393.121735 55.921631,391.224640 55.926117,389.326111 
	C55.991055,361.861664 55.974129,334.397003 55.988113,306.463287 
z"/>
<path fill="#51793A" opacity="1.000000" stroke="none" 
	d="
M37.902649,172.331512 
	C38.396652,173.937515 38.959980,175.848755 38.962193,177.760666 
	C39.011295,220.209167 38.998447,262.657745 38.529091,305.563324 
	C33.099743,305.993896 28.138680,305.967468 23.177614,305.941040 
	C17.509481,268.557983 19.400797,231.624008 30.017187,195.265961 
	C32.248138,187.625626 35.129158,180.175079 37.902649,172.331512 
z"/>
<path fill="#5D8C44" opacity="1.000000" stroke="none" 
	d="
M376.046387,62.069054 
	C374.683136,66.372231 373.319916,70.675407 371.607910,75.304306 
	C361.832153,72.012100 352.405212,68.394173 342.982666,64.321640 
	C342.987427,48.946049 342.987762,34.025070 342.988129,19.104094 
	C354.185394,22.879902 365.382660,26.655708 376.511108,31.002888 
	C376.310333,41.739193 376.178345,51.904121 376.046387,62.069054 
z"/>
<path fill="#507839" opacity="1.000000" stroke="none" 
	d="
M202.922211,20.817352 
	C213.307129,18.368998 223.692017,15.920640 234.519043,13.930053 
	C234.964890,29.508570 234.968628,44.629318 234.550125,59.848137 
	C223.764297,62.034225 213.400726,64.122246 203.025558,65.728546 
	C202.983398,50.437012 202.952805,35.627182 202.922211,20.817352 
z"/>
<path fill="#5C8C43" opacity="1.000000" stroke="none" 
	d="
M202.531662,20.821663 
	C202.952805,35.627182 202.983398,50.437012 202.775421,65.980408 
	C195.311356,69.480141 188.085831,72.246315 180.860306,75.012482 
	C176.997345,67.558273 173.134369,60.104057 169.138000,51.865700 
	C168.969391,45.273335 168.934204,39.465111 168.899002,33.656891 
	C179.979706,29.379919 191.060410,25.102947 202.531662,20.821663 
z"/>
<path fill="#4F7838" opacity="1.000000" stroke="none" 
	d="
M279.521240,10.094971 
	C279.988983,25.779554 279.993958,41.394585 279.532227,57.547249 
	C270.048401,58.216629 261.031311,58.348377 252.014206,58.044052 
	C252.016891,42.137074 252.019562,26.666164 252.022247,11.195258 
	C261.034302,10.805310 270.046387,10.415363 279.521240,10.094971 
z"/>
<path fill="#7AAD60" opacity="1.000000" stroke="none" 
	d="
M502.995483,306.474182 
	C511.303864,305.996124 519.606506,305.986145 528.365540,305.958069 
	C525.577637,329.631165 518.407593,352.141205 508.366455,373.780518 
	C506.836151,377.078430 505.144745,380.301575 503.264954,383.777649 
	C502.997955,358.311371 502.993866,332.626801 502.995483,306.474182 
z"/>
<path fill="#5D8D45" opacity="1.000000" stroke="none" 
	d="
M251.598633,11.120750 
	C252.019562,26.666164 252.016891,42.137074 251.599365,58.156158 
	C249.472427,58.867752 247.760345,59.031166 245.606735,59.116570 
	C241.767593,59.275726 238.369980,59.512897 234.972366,59.750065 
	C234.968628,44.629318 234.964890,29.508570 234.947647,13.872608 
	C240.347763,12.587010 245.761383,11.816627 251.598633,11.120750 
z"/>
<path fill="#507939" opacity="1.000000" stroke="none" 
	d="
M342.634674,18.948574 
	C342.987762,34.025070 342.987427,48.946049 342.599274,64.324677 
	C337.135040,63.540684 332.058624,62.299046 326.982178,61.057411 
	C326.988129,47.896111 326.966217,34.734669 327.032990,21.573679 
	C327.042023,19.796043 327.497101,18.020670 328.094788,15.947910 
	C333.056366,16.698736 337.668793,17.745897 342.634674,18.948574 
z"/>
<path fill="#7AAD60" opacity="1.000000" stroke="none" 
	d="
M23.116253,306.354370 
	C28.138680,305.967468 33.099743,305.993896 38.526154,306.035095 
	C38.967514,324.477966 38.943535,342.906036 38.859016,361.822998 
	C31.714859,346.217743 27.225716,329.358246 24.000969,312.126465 
	C23.667328,310.343658 23.369394,308.554108 23.116253,306.354370 
z"/>
<path fill="#50793A" opacity="1.000000" stroke="none" 
	d="
M376.336914,61.894829 
	C376.178345,51.904121 376.310333,41.739193 376.737885,31.276012 
	C380.123444,32.306244 383.213440,33.634724 386.640564,35.553474 
	C387.310120,39.761852 387.642517,43.379963 387.974915,46.998070 
	C384.192413,51.905575 380.409912,56.813087 376.336914,61.894829 
z"/>
<path fill="#51783A" opacity="1.000000" stroke="none" 
	d="
M168.549362,33.759422 
	C168.934204,39.465111 168.969391,45.273335 169.000137,51.552322 
	C165.033951,48.144104 161.072235,44.265121 156.943634,40.072708 
	C160.584412,37.793495 164.392059,35.827724 168.549362,33.759422 
z"/>
<path fill="#608C48" opacity="1.000000" stroke="none" 
	d="
M388.273407,46.849091 
	C387.642517,43.379963 387.310120,39.761852 386.971283,35.704262 
	C389.806305,36.690655 392.647797,38.116524 395.738098,39.768871 
	C393.515228,42.230267 391.043579,44.465187 388.273407,46.849091 
z"/>
<path fill="#79AD5F" opacity="1.000000" stroke="none" 
	d="
M468.997833,306.010986 
	C468.999512,336.036194 469.001221,366.061371 468.998749,396.558563 
	C464.068481,387.900055 459.142365,378.769592 454.094055,368.851257 
	C453.974426,350.760101 454.005707,333.456696 453.935303,316.153687 
	C453.928284,314.426392 453.303040,312.701630 453.034302,310.651978 
	C454.052032,308.880798 455.000092,307.433258 456.414856,305.993866 
	C460.920288,306.004974 464.959076,306.007996 468.997833,306.010986 
z"/>
<path fill="#5E8D45" opacity="1.000000" stroke="none" 
	d="
M452.964722,310.975708 
	C453.303040,312.701630 453.928284,314.426392 453.935303,316.153687 
	C454.005707,333.456696 453.974426,350.760101 453.955566,368.531128 
	C448.835571,362.430359 443.731812,355.861847 438.330627,349.139648 
	C437.450165,348.169769 436.867157,347.353546 436.450073,345.961243 
	C436.738281,340.582367 436.860596,335.779572 437.129883,330.678192 
	C442.506165,323.911621 447.735443,317.443665 452.964722,310.975708 
z"/>
<path fill="#E6E6E6" opacity="1.000000" stroke="none" 
	d="
M453.034332,310.652008 
	C447.735443,317.443665 442.506165,323.911621 436.835907,330.832733 
	C433.592896,333.770691 430.790863,336.255493 427.988800,338.740295 
	C409.350281,353.497101 387.377350,359.130737 364.388123,361.973572 
	C351.882355,363.520020 339.373749,365.043549 326.554321,366.232910 
	C333.089233,361.044739 339.243958,355.536011 343.054657,347.877869 
	C352.221222,329.456268 352.430908,310.286285 346.349213,291.173798 
	C341.979584,277.441650 333.290405,266.838806 318.609039,262.852203 
	C313.854431,261.561157 308.858490,260.817047 303.934265,260.558319 
	C290.586761,259.857056 277.218536,259.550201 263.424805,259.072266 
	C256.081665,259.727783 249.174042,260.416809 242.262527,261.064484 
	C226.118927,262.577301 214.821655,270.873810 207.812805,285.383392 
	C201.178101,299.118408 200.948776,313.652405 202.691910,328.282928 
	C204.206863,340.998413 209.381149,352.180084 218.769073,361.271240 
	C203.777588,360.057007 191.113098,353.985046 180.946686,343.308014 
	C170.042206,331.855804 162.165375,318.501007 158.430832,303.033630 
	C168.878021,302.088715 177.607956,298.308197 184.036011,290.433655 
	C195.469727,276.426971 208.691742,264.364166 222.740036,253.065811 
	C228.994476,248.035675 231.915833,240.928909 232.060928,232.870636 
	C232.316620,218.668839 215.493652,197.713608 200.850021,193.927780 
	C198.933563,193.432327 196.949432,193.061234 194.977722,192.939850 
	C184.558456,192.298447 176.383194,196.472336 169.663361,204.347931 
	C162.664291,212.550812 155.280884,220.425781 148.047745,227.962509 
	C149.060455,215.457947 149.282043,203.298431 151.284210,191.439514 
	C155.926514,163.942612 164.255859,137.539413 179.231949,113.764664 
	C194.935150,88.835632 214.841309,68.760025 244.496399,60.858757 
	C245.117401,60.693291 245.535507,59.766304 246.048264,59.194580 
	C247.760345,59.031166 249.472427,58.867752 251.599365,58.592232 
	C261.031311,58.348377 270.048401,58.216629 279.528748,58.012085 
	C295.366180,58.995110 310.740326,60.050926 326.548340,61.082073 
	C332.058624,62.299046 337.135040,63.540684 342.594849,64.779289 
	C352.405212,68.394173 361.832153,72.012100 371.591736,75.688400 
	C379.054779,79.780724 386.185211,83.814667 393.837280,88.217621 
	C399.857391,92.827599 405.901733,96.528694 410.740662,101.421837 
	C420.823853,111.617935 430.269501,122.444519 439.977112,133.012039 
	C444.122375,139.897141 448.267609,146.782227 452.741302,154.221497 
	C458.084869,169.172058 463.100006,183.568481 468.115143,197.964890 
	C471.319794,214.523895 472.883270,231.190247 470.970978,248.026077 
	C470.240692,254.455627 469.091553,260.837616 468.040710,268.022278 
	C463.948151,281.197418 459.948151,293.591583 455.948181,305.985748 
	C455.000092,307.433258 454.052032,308.880798 453.034332,310.652008 
M401.763641,226.719681 
	C394.776703,218.700378 387.851685,210.626083 380.787537,202.675400 
	C371.441345,192.156250 356.041138,188.983749 344.675659,196.948410 
	C336.805939,202.463318 329.621521,209.724060 324.053436,217.569229 
	C316.365417,228.401337 318.777771,244.543793 328.698517,252.541718 
	C343.787872,264.706482 357.253357,278.364319 370.309753,292.636475 
	C383.178284,306.703278 405.934113,306.242767 419.612823,292.734070 
	C433.375366,279.142609 433.470978,256.513733 419.632751,242.980621 
	C414.048492,237.519470 408.078278,232.452927 401.763641,226.719681 
z"/>
<path fill="#CCCCCC" opacity="1.000000" stroke="none" 
	d="
M158.026962,303.103821 
	C162.165375,318.501007 170.042206,331.855804 180.946686,343.308014 
	C191.113098,353.985046 203.777588,360.057007 219.076965,361.408875 
	C222.374496,363.116211 225.129715,364.959656 227.884933,366.803101 
	C216.067459,365.529694 204.188370,364.662262 192.448013,362.880676 
	C177.606689,360.628571 162.388016,359.428314 148.598694,352.900085 
	C140.265823,348.955139 132.518585,343.773193 124.034775,338.716858 
	C113.452133,330.310913 104.990265,320.896698 98.279396,309.869904 
	C97.090797,307.916870 94.979263,306.525543 93.254196,304.454590 
	C92.867699,301.938477 92.900253,299.687103 92.115135,297.770782 
	C84.686913,279.639557 81.384232,260.580444 80.231110,241.222412 
	C78.723236,215.908920 83.579254,191.497345 92.975914,167.612946 
	C94.856010,163.277908 96.571556,159.260330 98.287094,155.242737 
	C102.919304,147.796432 107.551514,140.350113 112.547546,132.356049 
	C115.555397,128.407181 118.139183,124.957146 120.854050,121.613548 
	C131.510757,108.488853 144.425064,97.838303 157.971954,87.888779 
	C165.454636,83.765533 172.937302,79.642288 180.640137,75.265762 
	C188.085831,72.246315 195.311356,69.480141 202.787018,66.462112 
	C213.400726,64.122246 223.764297,62.034225 234.550125,59.848137 
	C238.369980,59.512897 241.767593,59.275726 245.606735,59.116570 
	C245.535507,59.766304 245.117401,60.693291 244.496399,60.858757 
	C214.841309,68.760025 194.935150,88.835632 179.231949,113.764664 
	C164.255859,137.539413 155.926514,163.942612 151.284210,191.439514 
	C149.282043,203.298431 149.060455,215.457947 147.895081,228.231506 
	C142.358673,233.896439 136.680145,238.543335 131.618866,243.786148 
	C123.485222,252.211456 120.329147,262.563538 122.689270,274.019531 
	C126.375244,291.911194 138.559219,301.668457 158.026962,303.103821 
z"/>
<path fill="#CCCCCC" opacity="1.000000" stroke="none" 
	d="
M263.858521,259.086945 
	C277.218536,259.550201 290.586761,259.857056 303.934265,260.558319 
	C308.858490,260.817047 313.854431,261.561157 318.609039,262.852203 
	C333.290405,266.838806 341.979584,277.441650 346.349213,291.173798 
	C352.430908,310.286285 352.221222,329.456268 343.054657,347.877869 
	C339.243958,355.536011 333.089233,361.044739 326.089600,366.226349 
	C304.247772,372.152405 282.261993,374.061310 259.413452,371.479065 
	C246.611893,368.099854 241.435791,358.751953 238.476395,347.775055 
	C233.469498,329.203522 233.752838,310.362091 236.771637,291.539978 
	C237.352478,287.918396 239.407410,284.533203 240.859329,281.435333 
	C241.311890,283.612793 241.489792,285.464172 242.094391,287.163788 
	C246.766418,300.297485 260.796539,310.445709 274.914093,311.001434 
	C288.419434,311.533051 303.355072,302.157257 308.937256,289.643463 
	C313.974030,278.352325 310.556274,269.774841 298.350342,267.458466 
	C287.855316,265.466797 276.874695,265.129944 266.161774,265.519287 
	C259.414948,265.764465 252.765762,268.695007 246.031433,270.026947 
	C246.412430,264.965179 250.248962,263.700836 253.668945,262.299347 
	C256.952820,260.953644 260.453247,260.136414 263.858521,259.086945 
z"/>
<path fill="#5C8C44" opacity="1.000000" stroke="none" 
	d="
M92.811356,167.930389 
	C83.579254,191.497345 78.723236,215.908920 80.231110,241.222412 
	C81.384232,260.580444 84.686913,279.639557 92.115135,297.770782 
	C92.900253,299.687103 92.867699,301.938477 92.903404,304.723083 
	C92.396690,306.370453 92.031677,307.328857 92.030266,308.287781 
	C91.997765,330.421967 91.992302,352.556244 92.042336,374.690338 
	C92.044769,375.767792 92.598373,376.843994 92.895317,377.920776 
	C87.165283,391.148193 81.435249,404.375641 75.466385,417.868835 
	C75.159676,394.200653 75.080009,370.266693 75.028580,346.332672 
	C75.000366,333.200195 75.019753,320.067627 75.008904,306.466217 
	C75.002121,253.514252 74.999763,201.031158 75.022942,148.548065 
	C75.023811,146.569595 75.272247,144.591232 75.689476,142.310715 
	C81.215828,145.443451 86.458023,148.878281 91.857346,153.079773 
	C92.280098,158.541092 92.545723,163.235733 92.811356,167.930389 
z"/>
<path fill="#B0A1A1" opacity="1.000000" stroke="none" 
	d="
M240.782318,281.038971 
	C239.407410,284.533203 237.352478,287.918396 236.771637,291.539978 
	C233.752838,310.362091 233.469498,329.203522 238.476395,347.775055 
	C241.435791,358.751953 246.611893,368.099854 258.987762,371.408966 
	C248.926483,370.207855 238.757614,368.671600 228.236832,366.969208 
	C225.129715,364.959656 222.374496,363.116211 219.311386,361.135101 
	C209.381149,352.180084 204.206863,340.998413 202.691910,328.282928 
	C200.948776,313.652405 201.178101,299.118408 207.812805,285.383392 
	C214.821655,270.873810 226.118927,262.577301 242.262527,261.064484 
	C249.174042,260.416809 256.081665,259.727783 263.424805,259.072266 
	C260.453247,260.136414 256.952820,260.953644 253.668945,262.299347 
	C250.248962,263.700836 246.412430,264.965179 245.880875,270.312683 
	C244.108536,274.341248 242.445419,277.690125 240.782318,281.038971 
z"/>
<path fill="#79AC5F" opacity="1.000000" stroke="none" 
	d="
M93.063591,377.620758 
	C92.598373,376.843994 92.044769,375.767792 92.042336,374.690338 
	C91.992302,352.556244 91.997765,330.421967 92.030266,308.287781 
	C92.031677,307.328857 92.396690,306.370453 92.943115,305.143311 
	C94.979263,306.525543 97.090797,307.916870 98.279396,309.869904 
	C104.990265,320.896698 113.452133,330.310913 123.726494,338.548035 
	C119.822601,342.835449 115.243584,346.470734 111.794151,350.971741 
	C105.264244,359.492279 99.382759,368.509735 93.063591,377.620758 
z"/>
<path fill="#645B5B" opacity="1.000000" stroke="none" 
	d="
M124.288849,408.233765 
	C119.618660,414.966614 112.551643,419.515228 105.627007,419.601166 
	C106.365974,416.436615 106.503464,413.253906 107.827278,410.681763 
	C111.318291,403.898895 115.335670,397.387573 119.120064,390.754791 
	C120.856506,387.711426 123.901367,386.992249 126.356384,388.517212 
	C128.160416,389.637817 130.121582,392.918335 129.713791,394.714294 
	C128.675217,399.288361 126.347916,403.569824 124.288849,408.233765 
z"/>
<path fill="#655C5B" opacity="1.000000" stroke="none" 
	d="
M121.663437,426.735321 
	C122.166679,425.627075 122.296272,424.606995 122.871689,424.156921 
	C124.772026,422.670380 126.861053,420.308350 128.824646,420.358429 
	C130.519516,420.401733 133.042694,423.002472 133.641571,424.951385 
	C136.317749,433.660461 128.077759,450.265137 119.597862,454.193604 
	C116.123383,455.803223 114.594368,454.082550 115.106796,450.972565 
	C115.961723,445.783844 117.367523,440.677582 118.708069,435.580444 
	C119.464752,432.703278 120.554359,429.913666 121.663437,426.735321 
z"/>
<path fill="#7AAC61" opacity="1.000000" stroke="none" 
	d="
M428.321747,338.839966 
	C430.790863,336.255493 433.592896,333.770691 436.688904,331.131317 
	C436.860596,335.779572 436.738281,340.582367 436.331604,345.683380 
	C433.583069,343.634277 431.118896,341.286926 428.321747,338.839966 
z"/>
<path fill="#51793A" opacity="1.000000" stroke="none" 
	d="
M468.385590,197.653839 
	C463.100006,183.568481 458.084869,169.172058 453.023254,154.416901 
	C458.068542,152.051407 463.160339,150.044647 468.608032,147.977173 
	C468.861328,164.391891 468.758698,180.867325 468.385590,197.653839 
z"/>
<path fill="#537B3C" opacity="1.000000" stroke="none" 
	d="
M456.414856,305.993866 
	C459.948151,293.591583 463.948151,281.197418 468.059418,268.425598 
	C468.449188,270.621613 468.942993,273.193176 468.967804,275.769287 
	C469.062042,285.535858 469.004364,295.303864 469.000671,305.541168 
	C464.959076,306.007996 460.920288,306.004974 456.414856,305.993866 
z"/>
<path fill="#4C4545" opacity="1.000000" stroke="none" 
	d="
M440.301880,132.861542 
	C430.269501,122.444519 420.823853,111.617935 410.740662,101.421837 
	C405.901733,96.528694 399.857391,92.827599 394.172852,88.309799 
	C396.142883,74.696190 410.565674,62.006378 424.056915,60.930210 
	C437.583130,59.851261 448.628357,63.839367 457.808044,74.138710 
	C468.338257,85.953293 468.698517,108.983879 457.933441,120.592339 
	C453.019989,125.890732 447.625977,130.427582 440.301880,132.861542 
z"/>
<path fill="#4C4545" opacity="1.000000" stroke="none" 
	d="
M157.967529,87.512733 
	C144.425064,97.838303 131.510757,108.488853 120.854050,121.613548 
	C118.139183,124.957146 115.555397,128.407181 112.677032,132.031555 
	C99.863426,129.260788 92.054031,121.017517 87.975212,109.191147 
	C80.888535,88.643616 93.251877,65.803818 114.626686,61.493645 
	C133.938034,57.599564 152.299042,67.204491 157.967529,87.512733 
z"/>
<path fill="#527A3C" opacity="1.000000" stroke="none" 
	d="
M92.975906,167.612946 
	C92.545723,163.235733 92.280098,158.541092 92.035477,153.369812 
	C93.974167,153.474899 95.891861,154.056625 98.048325,154.940552 
	C96.571556,159.260330 94.856010,163.277908 92.975906,167.612946 
z"/>
<path fill="#665D5C" opacity="1.000000" stroke="none" 
	d="
M402.023682,226.963257 
	C408.078278,232.452927 414.048492,237.519470 419.632751,242.980621 
	C433.470978,256.513733 433.375366,279.142609 419.612823,292.734070 
	C405.934113,306.242767 383.178284,306.703278 370.309753,292.636475 
	C357.253357,278.364319 343.787872,264.706482 328.698517,252.541718 
	C318.777771,244.543793 316.365417,228.401337 324.053436,217.569229 
	C329.621521,209.724060 336.805939,202.463318 344.675659,196.948410 
	C356.041138,188.983749 371.441345,192.156250 380.787537,202.675400 
	C387.851685,210.626083 394.776703,218.700378 402.023682,226.963257 
M334.716003,235.513000 
	C330.460693,250.695297 343.295990,267.457001 361.185425,266.083344 
	C370.359436,265.378937 379.841553,258.617981 382.682892,249.361969 
	C386.359070,237.386276 382.808746,228.879730 375.776428,222.601303 
	C360.462158,208.928802 338.180939,218.625107 334.716003,235.513000 
z"/>
<path fill="#665D5C" opacity="1.000000" stroke="none" 
	d="
M158.430832,303.033630 
	C138.559219,301.668457 126.375244,291.911194 122.689270,274.019531 
	C120.329147,262.563538 123.485222,252.211456 131.618866,243.786148 
	C136.680145,238.543335 142.358673,233.896439 147.912857,228.713104 
	C155.280884,220.425781 162.664291,212.550812 169.663361,204.347931 
	C176.383194,196.472336 184.558456,192.298447 194.977722,192.939850 
	C196.949432,193.061234 198.933563,193.432327 200.850021,193.927780 
	C215.493652,197.713608 232.316620,218.668839 232.060928,232.870636 
	C231.915833,240.928909 228.994476,248.035675 222.740036,253.065811 
	C208.691742,264.364166 195.469727,276.426971 184.036011,290.433655 
	C177.607956,298.308197 168.878021,302.088715 158.430832,303.033630 
M217.090179,246.468582 
	C220.599838,233.349701 212.407593,220.031494 197.907440,216.618378 
	C186.518509,213.937607 172.191208,220.880768 168.886108,234.621109 
	C165.428375,248.995926 173.597061,262.592957 187.781616,265.761963 
	C200.709808,268.650299 214.038422,260.234222 217.090179,246.468582 
z"/>
<path fill="#111110" opacity="1.000000" stroke="none" 
	d="
M240.859314,281.435333 
	C242.445419,277.690125 244.108536,274.341248 245.922211,270.706665 
	C252.765762,268.695007 259.414948,265.764465 266.161774,265.519287 
	C276.874695,265.129944 287.855316,265.466797 298.350342,267.458466 
	C310.556274,269.774841 313.974030,278.352325 308.937256,289.643463 
	C303.355072,302.157257 288.419434,311.533051 274.914093,311.001434 
	C260.796539,310.445709 246.766418,300.297485 242.094391,287.163788 
	C241.489792,285.464172 241.311890,283.612793 240.859314,281.435333 
M295.059235,288.462097 
	C295.703064,288.296844 296.379791,288.209595 296.985504,287.953979 
	C301.745392,285.945251 304.072296,281.289307 302.664490,276.658142 
	C301.336395,272.289246 296.521576,269.331757 292.135284,270.190552 
	C287.075684,271.181183 284.055176,275.540863 284.851288,280.936096 
	C285.647400,286.331757 289.400757,288.249908 295.059235,288.462097 
z"/>
<path fill="#4C4545" opacity="1.000000" stroke="none" 
	d="
M334.827942,235.113510 
	C338.180939,218.625107 360.462158,208.928802 375.776428,222.601303 
	C382.808746,228.879730 386.359070,237.386276 382.682892,249.361969 
	C379.841553,258.617981 370.359436,265.378937 361.185425,266.083344 
	C343.295990,267.457001 330.460693,250.695297 334.827942,235.113510 
M354.209900,223.954712 
	C347.898254,225.067108 346.235504,230.073074 345.605499,235.224136 
	C345.016541,240.039795 347.089966,244.236328 351.234894,247.096191 
	C358.971313,252.434036 369.560150,248.654968 371.547485,239.629181 
	C373.817200,234.159195 372.075775,229.551056 367.954132,225.945343 
	C364.203827,222.664490 359.828491,220.957687 354.209900,223.954712 
z"/>
<path fill="#4D4646" opacity="1.000000" stroke="none" 
	d="
M217.054779,246.884491 
	C214.038422,260.234222 200.709808,268.650299 187.781616,265.761963 
	C173.597061,262.592957 165.428375,248.995926 168.886108,234.621109 
	C172.191208,220.880768 186.518509,213.937607 197.907440,216.618378 
	C212.407593,220.031494 220.599838,233.349701 217.054779,246.884491 
M205.504517,239.588928 
	C208.207123,228.700287 201.117920,221.532410 188.404373,223.100159 
	C179.984589,226.904755 176.949509,234.392227 180.680542,242.154663 
	C182.951401,246.879211 188.863358,250.375305 193.632919,249.814178 
	C200.097565,249.053635 204.021301,245.680115 205.504517,239.588928 
z"/>
<path fill="#7B7070" opacity="1.000000" stroke="none" 
	d="
M294.692810,288.558746 
	C289.400757,288.249908 285.647400,286.331757 284.851288,280.936096 
	C284.055176,275.540863 287.075684,271.181183 292.135284,270.190552 
	C296.521576,269.331757 301.336395,272.289246 302.664490,276.658142 
	C304.072296,281.289307 301.745392,285.945251 296.985504,287.953979 
	C296.379791,288.209595 295.703064,288.296844 294.692810,288.558746 
z"/>
<path fill="#131312" opacity="1.000000" stroke="none" 
	d="
M370.973877,240.083191 
	C369.560150,248.654968 358.971313,252.434036 351.234894,247.096191 
	C347.089966,244.236328 345.016541,240.039795 345.605499,235.224136 
	C346.235504,230.073074 347.898254,225.067108 354.558014,224.359894 
	C353.210571,235.328415 360.146606,241.940872 370.973877,240.083191 
z"/>
<path fill="#E0E0E0" opacity="1.000000" stroke="none" 
	d="
M371.260681,239.856186 
	C360.146606,241.940872 353.210571,235.328415 354.927795,224.390625 
	C359.828491,220.957687 364.203827,222.664490 367.954132,225.945343 
	C372.075775,229.551056 373.817200,234.159195 371.260681,239.856186 
z"/>
<path fill="#131312" opacity="1.000000" stroke="none" 
	d="
M204.982391,240.056229 
	C204.021301,245.680115 200.097565,249.053635 193.632919,249.814178 
	C188.863358,250.375305 182.951401,246.879211 180.680542,242.154663 
	C176.949509,234.392227 179.984589,226.904755 188.708344,223.453552 
	C186.489594,234.823944 193.547577,242.005325 204.982391,240.056229 
z"/>
<path fill="#E1E1E1" opacity="1.000000" stroke="none" 
	d="
M205.243454,239.822571 
	C193.547577,242.005325 186.489594,234.823944 189.066406,223.415009 
	C201.117920,221.532410 208.207123,228.700287 205.243454,239.822571 
z"/>
</svg>